<svg width="40" height="40" fill="none" xmlns="http://www.w3.org/2000/svg"><g filter="url(#filter0_d)"><rect x="8.001" y="4" width="24" height="24" rx="12" fill="#fff"/><mask id="a" maskUnits="userSpaceOnUse" x="12" y="8" width="17" height="16"><path d="M20.001 24a8 8 0 007.816-9.714H20V17.6h4.405a4.688 4.688 0 01-9.09-1.6 4.686 4.686 0 018.047-3.264l2.332-2.355A8 8 0 1020.002 24z" fill="#C4C4C4"/></mask><g mask="url(#a)"><path d="M6.858 16.031l5.143-4.372 5.714 4.457-5.714 4.229-5.143-4.314z" fill="#FEBD01"/><path d="M12.001 11.66l6.457-6.457 6.972 2.514 3.028 5.372-8.628.343-2.115 2.685-5.714-4.457z" fill="#FF4131"/><path d="M19.658 13.943l9.257-.228-.114 4.114-2.286 4.914-4.685-3.657-2.172-1.028v-4.115z" fill="#0286F7"/><path d="M12.001 20.346l5.714-4.229.629 2.857 3.485.115 4.686 3.657-4.743 2.057-5.885-.343L12 20.346z" fill="#01A94D"/></g></g><defs><filter id="filter0_d" x=".001" y="0" width="40" height="40" filterUnits="userSpaceOnUse" color-interpolation-filters="sRGB"><feFlood flood-opacity="0" result="BackgroundImageFix"/><feColorMatrix in="SourceAlpha" values="0 0 0 0 0 0 0 0 0 0 0 0 0 0 0 0 0 0 127 0" result="hardAlpha"/><feOffset dy="4"/><feGaussianBlur stdDeviation="4"/><feColorMatrix values="0 0 0 0 0 0 0 0 0 0.0627451 0 0 0 0 0.160784 0 0 0 0.1 0"/><feBlend in2="BackgroundImageFix" result="effect1_dropShadow"/><feBlend in="SourceGraphic" in2="effect1_dropShadow" result="shape"/></filter></defs></svg>