<svg width="40" height="40" fill="none" xmlns="http://www.w3.org/2000/svg"><g filter="url(#filter0_d)"><path d="M20 4C13.374 4 8 9.373 8 16.001 8.001 22.628 13.374 28 20 28s11.999-5.372 11.999-11.999c0-6.628-5.373-12.001-12-12.001z" fill="url(#paint0_linear)"/><path d="M20 20.284a4.289 4.289 0 004.285-4.283A4.29 4.29 0 0020 11.715 4.29 4.29 0 0015.715 16 4.29 4.29 0 0020 20.284zm-3.246-4.283A3.25 3.25 0 0120 12.753 3.25 3.25 0 0123.246 16 3.25 3.25 0 0120 19.247 3.25 3.25 0 0116.754 16z" fill="#fff"/><path d="M24.274 23.118h-8.547a2.912 2.912 0 01-2.91-2.91v-8.416a2.912 2.912 0 012.91-2.91h8.547a2.912 2.912 0 012.909 2.91v8.417a2.912 2.912 0 01-2.91 2.909zM15.727 9.944a1.85 1.85 0 00-1.848 1.848v8.417a1.85 1.85 0 001.848 1.847h8.547a1.85 1.85 0 001.847-1.847v-8.417a1.85 1.85 0 00-1.847-1.848h-8.547z" fill="#fff"/><path d="M24.343 11.227a.677.677 0 10.002 1.354.677.677 0 00-.002-1.354z" fill="#fff"/></g><defs><linearGradient id="paint0_linear" x1="27.872" y1="25.056" x2="12.127" y2="6.944" gradientUnits="userSpaceOnUse"><stop stop-color="#5D3FD2"/><stop offset=".424" stop-color="#B829A9"/><stop offset=".501" stop-color="#BE289D"/><stop offset=".638" stop-color="#D0257E"/><stop offset=".785" stop-color="#E62256"/><stop offset=".815" stop-color="#E83156"/><stop offset=".872" stop-color="#EE5755"/><stop offset=".95" stop-color="#F89554"/><stop offset="1" stop-color="#FFC153"/></linearGradient><filter id="filter0_d" x=".001" y="0" width="39.998" height="40" filterUnits="userSpaceOnUse" color-interpolation-filters="sRGB"><feFlood flood-opacity="0" result="BackgroundImageFix"/><feColorMatrix in="SourceAlpha" values="0 0 0 0 0 0 0 0 0 0 0 0 0 0 0 0 0 0 127 0" result="hardAlpha"/><feOffset dy="4"/><feGaussianBlur stdDeviation="4"/><feColorMatrix values="0 0 0 0 0 0 0 0 0 0.0627451 0 0 0 0 0.160784 0 0 0 0.1 0"/><feBlend in2="BackgroundImageFix" result="effect1_dropShadow"/><feBlend in="SourceGraphic" in2="effect1_dropShadow" result="shape"/></filter></defs></svg>