<svg width="40" height="40" fill="none" xmlns="http://www.w3.org/2000/svg"><g filter="url(#filter0_d)"><path d="M31.999 16c0-6.628-5.373-12-12-12S8 9.372 8 16c0 6.627 5.372 12 12 12s12-5.373 12-12z" fill="#3D83D9"/><path d="M17.063 13.07h-2.778v7.94h2.778v-7.94zm-1.389-3.968a1.39 1.39 0 00-.29 2.75 1.39 1.39 0 10.29-2.75zm10.519 6.408c-.187-1.497-.936-2.44-2.958-2.44-1.436 0-2.007.224-2.336.85v-.85H18.65v7.94h2.315v-4.157c0-1.037.196-1.82 1.479-1.82 1.264 0 1.366.964 1.366 1.888v4.088h2.383s.044-5.15 0-5.5z" fill="#fff"/></g><defs><filter id="filter0_d" x="-.001" y="0" width="40" height="40" filterUnits="userSpaceOnUse" color-interpolation-filters="sRGB"><feFlood flood-opacity="0" result="BackgroundImageFix"/><feColorMatrix in="SourceAlpha" values="0 0 0 0 0 0 0 0 0 0 0 0 0 0 0 0 0 0 127 0" result="hardAlpha"/><feOffset dy="4"/><feGaussianBlur stdDeviation="4"/><feColorMatrix values="0 0 0 0 0 0 0 0 0 0.0627451 0 0 0 0 0.160784 0 0 0 0.1 0"/><feBlend in2="BackgroundImageFix" result="effect1_dropShadow"/><feBlend in="SourceGraphic" in2="effect1_dropShadow" result="shape"/></filter></defs></svg>